<svg xmlns="http://www.w3.org/2000/svg" width="19" height="11.822" viewBox="0 0 19 11.822">
  <defs>
    <style>
      .cls-1 {
        fill: #bc2690;
      }
    </style>
  </defs>
  <path id="Path_5" data-name="Path 5" class="cls-1" d="M17.159,1.685H12.4V.5h4.761ZM9.229,6.534a3.132,3.132,0,0,1,.46,1.732,3.456,3.456,0,0,1-.525,1.887,3.271,3.271,0,0,1-.837.928,3.232,3.232,0,0,1-1.335.594,8.248,8.248,0,0,1-1.669.159H0V.011H5.71A3.632,3.632,0,0,1,8.771,1.27a3.007,3.007,0,0,1,.541,1.806,2.629,2.629,0,0,1-.546,1.74,2.787,2.787,0,0,1-.9.673A2.625,2.625,0,0,1,9.228,6.534Zm-6.5-1.861h2.5a2.372,2.372,0,0,0,1.25-.293,1.119,1.119,0,0,0,.48-1.04,1.059,1.059,0,0,0-.635-1.091,4.474,4.474,0,0,0-1.4-.185h-2.2V4.673ZM7.2,8.1a1.268,1.268,0,0,0-.752-1.266,2.95,2.95,0,0,0-1.182-.2H2.726V9.781h2.5a2.776,2.776,0,0,0,1.2-.208A1.491,1.491,0,0,0,7.2,8.1ZM18.924,6.174A11.167,11.167,0,0,1,19,7.855H12.832a2.024,2.024,0,0,0,.885,1.787,2.23,2.23,0,0,0,1.22.318,1.858,1.858,0,0,0,1.228-.389,1.831,1.831,0,0,0,.455-.581h2.26a2.754,2.754,0,0,1-.82,1.531,4.114,4.114,0,0,1-3.185,1.237,4.623,4.623,0,0,1-2.983-1.042A4.117,4.117,0,0,1,10.6,7.322a4.584,4.584,0,0,1,1.165-3.376A4.083,4.083,0,0,1,14.8,2.772a4.824,4.824,0,0,1,1.991.4A3.435,3.435,0,0,1,18.25,4.421a4.187,4.187,0,0,1,.676,1.752Zm-2.225.22a1.85,1.85,0,0,0-.591-1.338A1.935,1.935,0,0,0,14.8,4.6a1.753,1.753,0,0,0-1.32.485,2.28,2.28,0,0,0-.59,1.311Z" transform="translate(0 -0.011)"/>
</svg>
