<svg xmlns="http://www.w3.org/2000/svg" width="60.956" height="41.946" viewBox="0 0 60.956 41.946">
  <defs>
    <style>
      .cls-1 {
        fill: #bc2690;
        stroke: #ffdbf5;
        stroke-width: 0.7px;
      }
    </style>
  </defs>
  <g id="noun-envelope-5176996" transform="translate(0.35 0.35)">
    <g id="Group_10" data-name="Group 10" transform="translate(0 0)">
      <path id="Path_38" data-name="Path 38" class="cls-1" d="M8.457,93.272H58.475L40.616,77.363l-6.205,5.528a1.41,1.41,0,0,1-1.883.007l-6.212-5.535L8.457,93.272ZM60.77,91.536V59.41L42.737,75.472,60.77,91.534ZM24.2,75.474,6.164,59.412V91.538L24.2,75.476Zm34.281-17.8H8.459L27.238,74.4l.035.03,6.2,5.521,6.2-5.521.035-.03L58.479,57.676ZM62.183,96.1H4.753A1.413,1.413,0,0,1,3.34,94.683V56.263A1.413,1.413,0,0,1,4.753,54.85h57.43A1.413,1.413,0,0,1,63.6,56.263v38.42A1.413,1.413,0,0,1,62.183,96.1Z" transform="translate(-3.34 -54.85)"/>
    </g>
  </g>
</svg>
