<svg xmlns="http://www.w3.org/2000/svg" width="18" height="18" viewBox="0 0 18 18">
  <defs>
    <style>
      .cls-1 {
        fill: #bc2690;
      }
    </style>
  </defs>
  <path id="Path_2" data-name="Path 2" class="cls-1" d="M17.01.99A3.25,3.25,0,0,0,14.625,0H3.375A3.25,3.25,0,0,0,.99.99,3.25,3.25,0,0,0,0,3.375v11.25A3.25,3.25,0,0,0,.99,17.01,3.25,3.25,0,0,0,3.375,18H6a3.109,3.109,0,0,0,.387-.018.454.454,0,0,0,.258-.152.548.548,0,0,0,.129-.392l-.006-.8q-.005-.762-.005-1.207l-.27.047a3.428,3.428,0,0,1-.65.041,5,5,0,0,1-.814-.082,1.825,1.825,0,0,1-.786-.351,1.487,1.487,0,0,1-.515-.721l-.117-.27a2.928,2.928,0,0,0-.369-.6,1.41,1.41,0,0,0-.51-.445L2.649,13a.861.861,0,0,1-.153-.141.651.651,0,0,1-.105-.164c-.023-.055,0-.1.059-.135a.749.749,0,0,1,.341-.053l.234.036a1.7,1.7,0,0,1,.579.28,1.892,1.892,0,0,1,.568.61,2.078,2.078,0,0,0,.65.732,1.385,1.385,0,0,0,.768.252,3.352,3.352,0,0,0,.669-.059,2.333,2.333,0,0,0,.527-.177,1.9,1.9,0,0,1,.574-1.207,8.025,8.025,0,0,1-1.2-.211,4.788,4.788,0,0,1-1.1-.457,3.153,3.153,0,0,1-.943-.786,3.789,3.789,0,0,1-.615-1.23,5.88,5.88,0,0,1-.24-1.759,3.421,3.421,0,0,1,.925-2.415,3.154,3.154,0,0,1,.082-2.389,1.636,1.636,0,0,1,1.008.158,7.132,7.132,0,0,1,.978.45q.311.189.5.317a8.465,8.465,0,0,1,4.5,0L11.7,4.37a6.3,6.3,0,0,1,1.078-.515,1.532,1.532,0,0,1,.95-.129,3.119,3.119,0,0,1,.093,2.39,3.418,3.418,0,0,1,.926,2.415,5.893,5.893,0,0,1-.241,1.763,3.616,3.616,0,0,1-.621,1.231,3.288,3.288,0,0,1-.949.779,4.774,4.774,0,0,1-1.1.457,8.018,8.018,0,0,1-1.2.212,2.088,2.088,0,0,1,.609,1.663v2.8a.744.744,0,0,0,.059.322.324.324,0,0,0,.187.17,1.036,1.036,0,0,0,.229.058A2.361,2.361,0,0,0,12,18h2.625A3.381,3.381,0,0,0,18,14.624V3.375A3.251,3.251,0,0,0,17.009.99Z"/>
</svg>
