<svg xmlns="http://www.w3.org/2000/svg" width="18" height="17.2" viewBox="0 0 18 17.2">
  <defs>
    <style>
      .cls-1 {
        fill: #bc2690;
      }
    </style>
  </defs>
  <path id="Path_4" data-name="Path 4" class="cls-1" d="M18,10.571v6.655H14.142V11.017c0-1.56-.558-2.624-1.954-2.624A2.111,2.111,0,0,0,10.208,9.8a2.637,2.637,0,0,0-.128.941v6.482H6.22s.052-10.516,0-11.606h3.86V7.265l-.025.038h.025V7.265a3.831,3.831,0,0,1,3.478-1.917C16.1,5.348,18,7.007,18,10.571ZM2.183.026a2.011,2.011,0,1,0-.051,4.011h.025A2.012,2.012,0,1,0,2.184.026ZM.229,17.226H4.087V5.62H.229Z" transform="translate(0 -0.026)"/>
</svg>
