<svg xmlns="http://www.w3.org/2000/svg" width="60.5" height="58.089" viewBox="0 0 60.5 58.089">
  <defs>
    <style>
      .cls-1, .cls-2 {
        fill: #bc2690;
        stroke: #ffdbf5;
      }

      .cls-1 {
        stroke-width: 0.5px;
      }

      .cls-2 {
        stroke-width: 0.1px;
      }
    </style>
  </defs>
  <g id="Group_22" data-name="Group 22" transform="translate(-953.567 -603.642)">
    <g id="noun-page-2143653" transform="translate(953.817 603.892)">
      <g id="Group_9" data-name="Group 9">
        <path id="Path_36" data-name="Path 36" class="cls-1" d="M39.446,98.589H83.013A9.028,9.028,0,0,0,92,89.616V42.259A1.293,1.293,0,0,0,90.741,41H45.621l-.851.4-.314.861V73.411h-11.2A1.2,1.2,0,0,0,32,74.562V91.156A7.488,7.488,0,0,0,39.446,98.589Zm7.42-7.433V43.411H89.589V89.616a6.611,6.611,0,0,1-6.576,6.563H44.9A7.529,7.529,0,0,0,46.866,91.156ZM34.411,75.821H44.455V91.156a5.022,5.022,0,0,1-10.045,0Z" transform="translate(-32 -41)"/>
      </g>
    </g>
    <g id="noun-about-2940539" transform="translate(986.802 624.366)">
      <path id="Path_39" data-name="Path 39" class="cls-2" d="M23.725,12.783a1.447,1.447,0,1,1-1.447-1.447,1.447,1.447,0,0,1,1.447,1.447Zm-3.27,11.7,2-7.453c.37-1.379-1.748-1.948-3.117-1.286a5.319,5.319,0,0,0-2.11,1.841c.86-.378,2.782-1.233,2.083,1.374l-2,7.453c-.37,1.379,1.748,1.948,3.117,1.286a5.319,5.319,0,0,0,2.11-1.841C21.678,26.238,19.757,27.093,20.455,24.486Z" transform="translate(-17.225 -11.336)"/>
    </g>
  </g>
</svg>
