<svg id="noun-steps-2978984" xmlns="http://www.w3.org/2000/svg" width="100.62" height="108.641" viewBox="0 0 100.62 108.641">
  <defs>
    <style>
      .cls-1 {
        fill: #bc2690;
      }
    </style>
  </defs>
  <path id="Path_12" data-name="Path 12" class="cls-1" d="M24.315,86.23h0c1.926,3.02,4.085,6.624,7.193,4.64s.759-5.457-1.167-8.477V82.32Z" transform="translate(58.087 17.202)"/>
  <path id="Path_13" data-name="Path 13" class="cls-1" d="M40.523,76.169h0l-.233-.35-.219-.365h0c-3.181-4.465-7.631-6.726-10.213-5.063s-2.451,6.653.263,11.438h0l.248.35c0,.117.146.233.219.365h0a17.056,17.056,0,0,0,3.6,3.75l8.156-5.267a17,17,0,0,0-1.882-4.858" transform="translate(43.382 11.476)"/>
  <path id="Path_14" data-name="Path 14" class="cls-1" d="M17.793,67.674v.088c1.926,3.006,4.071,6.609,7.193,4.625s.744-5.457-1.167-8.477h0Z" transform="translate(74.121 8.752)"/>
  <path id="Path_15" data-name="Path 15" class="cls-1" d="M33.895,57.695h0l-.233-.35-.146-.379h0C30.335,52.486,25.885,50.239,23.3,51.9s-2.437,6.653.263,11.424h0l.233.35.219.365h0a16.734,16.734,0,0,0,3.6,3.75l8.156-5.282a16.749,16.749,0,0,0-1.882-4.844" transform="translate(59.508 2.989)"/>
  <path id="Path_16" data-name="Path 16" class="cls-1" d="M38.711,60.119h0c2.6,2.466,5.544,5.442,8.1,2.772s-.584-5.486-3.166-7.951h0Z" transform="translate(22.346 4.635)"/>
  <path id="Path_17" data-name="Path 17" class="cls-1" d="M57.259,49.09h0l-.321-.292-.292-.292h0c-4.158-3.575-9.017-4.7-11.161-2.451s-.773,7.047,3.006,11.03h0l.306.292.306.306h0A17.056,17.056,0,0,0,53.48,60.47l6.755-7.105a16.954,16.954,0,0,0-2.918-4.26" transform="translate(1.463 0.024)"/>
  <path id="Path_18" data-name="Path 18" class="cls-1" d="M36.8,40.629h0c2.6,2.466,5.544,5.442,8.1,2.772s-.584-5.486-3.181-7.951h0Z" transform="translate(27.043 -4.311)"/>
  <path id="Path_19" data-name="Path 19" class="cls-1" d="M55.373,29.58h0l-.321-.292c-.1-.1-.19-.2-.292-.292h0C50.6,25.422,45.729,24.3,43.6,26.545s-.773,7.047,3.006,11.03h0l.306.292.306.306h0a17.055,17.055,0,0,0,4.377,2.787l6.755-7.105a17.333,17.333,0,0,0-2.991-4.26" transform="translate(6.093 -8.931)"/>
  <path id="Path_20" data-name="Path 20" class="cls-1" d="M60.97,45.1h0c3.341,1.284,7.207,2.918,8.535-.54s-2.641-4.844-5.982-6.128h-.088Z" transform="translate(-32.142 -2.943)"/>
  <path id="Path_21" data-name="Path 21" class="cls-1" d="M81.894,34.033h0l-.409-.146-.394-.16h0c-5.223-1.707-10.14-.875-11.263,2.028s2.013,6.8,7.018,8.987h0l.394.146.394.16h0a17.231,17.231,0,0,0,5.121.875l3.531-9.119a16.633,16.633,0,0,0-4.377-2.772" transform="translate(-61.251 -5.506)"/>
  <path id="Path_22" data-name="Path 22" class="cls-1" d="M66.68,26.308h.088c3.341,1.284,7.207,2.918,8.535-.54s-2.641-4.844-5.982-6.128h-.088Z" transform="translate(-46.271 -11.568)"/>
  <path id="Path_23" data-name="Path 23" class="cls-1" d="M87.614,15.293h0l-.409-.146-.394-.16h0C81.6,13.28,76.6,14.111,75.562,17.015s2,6.8,7,9.031h0l.394.146.394.146h0a17.231,17.231,0,0,0,5.121.875l3.516-9.148a16.3,16.3,0,0,0-4.377-2.787" transform="translate(-75.36 -14.107)"/>
</svg>
