<svg xmlns="http://www.w3.org/2000/svg" width="19.5" height="13.703" viewBox="0 0 19.5 13.703">
  <defs>
    <style>
      .cls-1 {
        fill: #bc2690;
      }
    </style>
  </defs>
  <path id="Path_3" data-name="Path 3" class="cls-1" d="M15.45.017H4.05A4.035,4.035,0,0,0,0,4.038V9.7a4.037,4.037,0,0,0,4.05,4.022h11.4A4.036,4.036,0,0,0,19.5,9.7V4.038A4.037,4.037,0,0,0,15.45.016ZM12.711,7.142,7.379,9.668a.214.214,0,0,1-.307-.192V4.268a.214.214,0,0,1,.311-.189l5.333,2.683a.212.212,0,0,1,0,.382Z" transform="translate(0 -0.016)"/>
</svg>
